HIERARCHY
ROOT Hips
{
	OFFSET 0.000000 0.000000 0.000000
	CHANNELS 6 Xposition Yposition Zposition Zrotation Yrotation Xrotation 
	JOINT LeftUpLeg_virtual
	{
		OFFSET 0.000000 0.000000 0.000000
		CHANNELS 3 Zrotation Yrotation Xrotation
		JOINT LeftUpLeg
		{
			OFFSET 8.479694 -4.795517 -0.379053
			CHANNELS 3 Zrotation Yrotation Xrotation
			JOINT LeftLeg
			{
				OFFSET 0.485052 -32.551468 0.112863
				CHANNELS 3 Zrotation Yrotation Xrotation
				JOINT LeftFoot
				{
					OFFSET 0.438033 -32.635670 -3.012641
					CHANNELS 3 Zrotation Yrotation Xrotation
					JOINT LeftToeBase
					{
						OFFSET 0.970169 -13.225353 11.864223
						CHANNELS 3 Zrotation Yrotation Xrotation
						End Site
						{
							OFFSET 0.000000 0.000000 0.000000
						}
					}
				}
			}
		}
	}
	JOINT RightUpLeg_virtual
	{
		OFFSET 0.000000 0.000000 0.000000
		CHANNELS 3 Zrotation Yrotation Xrotation
		JOINT RightUpLeg
		{
			OFFSET -8.479694 -4.795517 -0.379053
			CHANNELS 3 Zrotation Yrotation Xrotation
			JOINT RightLeg
			{
				OFFSET -0.484100 -32.551483 0.112903
				CHANNELS 3 Zrotation Yrotation Xrotation
				JOINT RightFoot
				{
					OFFSET -0.438985 -32.635651 -3.012681
					CHANNELS 3 Zrotation Yrotation Xrotation
					JOINT RightToeBase
					{
						OFFSET -0.970169 -13.225354 11.864223
						CHANNELS 3 Zrotation Yrotation Xrotation
						End Site
						{
							OFFSET 0.000000 0.000000 0.000000
						}
					}
				}
			}
		}
	}
	JOINT Spine_virtual
	{
		OFFSET 0.000000 0.000000 0.000000
		CHANNELS 3 Zrotation Yrotation Xrotation
		JOINT Spine
		{
			OFFSET 0.000000 7.722015 1.166203
			CHANNELS 3 Zrotation Yrotation Xrotation
			JOINT Spine1
			{
				OFFSET 0.000000 12.024086 0.248766
				CHANNELS 3 Zrotation Yrotation Xrotation
				JOINT Spine2
				{
					OFFSET -0.000000 11.503036 -0.491240
					CHANNELS 3 Zrotation Yrotation Xrotation
					JOINT Neck_virtual
					{
						OFFSET 0.000000 0.000000 0.000000
						CHANNELS 3 Zrotation Yrotation Xrotation
						JOINT Neck
						{
							OFFSET 0.000000 18.430687 -3.123054
							CHANNELS 3 Zrotation Yrotation Xrotation
							JOINT Head
							{
								OFFSET -0.000000 9.051071 1.034021
								CHANNELS 3 Zrotation Yrotation Xrotation
								End Site
								{
									OFFSET 0.000000 0.000000 0.000000
								}
							}
						}
					}
					JOINT LeftShoulder_virtual
					{
						OFFSET 0.000000 0.000000 0.000000
						CHANNELS 3 Zrotation Yrotation Xrotation
						JOINT LeftShoulder
						{
							OFFSET 6.197824 13.665230 -4.064723
							CHANNELS 3 Zrotation Yrotation Xrotation
							JOINT LeftArm
							{
								OFFSET 7.778132 -0.187073 -1.709282
								CHANNELS 3 Zrotation Yrotation Xrotation
								JOINT LeftForeArm
								{
									OFFSET 21.954697 0.000000 -2.041093
									CHANNELS 3 Zrotation Yrotation Xrotation
									JOINT LeftHand
									{
										OFFSET 22.992908 0.000000 -0.870901
										CHANNELS 3 Zrotation Yrotation Xrotation
										End Site
										{
											OFFSET 0.000000 0.000000 0.000000
										}
									}
								}
							}
						}
					}
					JOINT RightShoulder_virtual
					{
						OFFSET 0.000000 0.000000 0.000000
						CHANNELS 3 Zrotation Yrotation Xrotation
						JOINT RightShoulder
						{
							OFFSET -6.197824 13.665230 -4.064723
							CHANNELS 3 Zrotation Yrotation Xrotation
							JOINT RightArm
							{
								OFFSET -7.778132 -0.187073 -1.709282
								CHANNELS 3 Zrotation Yrotation Xrotation
								JOINT RightForeArm
								{
									OFFSET -21.954697 0.000000 -2.041093
									CHANNELS 3 Zrotation Yrotation Xrotation
									JOINT RightHand
									{
										OFFSET -22.992908 0.000000 -0.870901
										CHANNELS 3 Zrotation Yrotation Xrotation
										End Site
										{
											OFFSET 0.000000 0.000000 0.000000
										}
									}
								}
							}
						}
					}
				}
			}
		}
	}
}
MOTION
Frames: 13
Frame Time: 0.033333
-2.642282 80.258018 15.863401 -179.637704 27.142393 -179.600330 -3.341906 3.199208 6.809130 0.141490 16.728854 -24.379812 8.362989 2.356011 34.479468 -1.903086 -9.342645 -12.340772 0.000000 0.000000 0.000000 -0.617047 3.073931 8.741332 -0.658981 11.428422 -28.584511 -2.055533 3.796266 42.804194 5.485518 -0.453697 -7.729541 0.000000 0.000000 0.000000 3.968751 4.376144 -7.246756 2.865599 -0.260338 3.980569 1.039856 -3.504350 14.440227 0.029178 -0.080240 0.033370 0.743579 -2.504795 15.600140 12.862926 -13.375487 -8.070229 0.000000 0.000000 0.000000 2.109695 -1.825398 12.427329 -6.919438 -18.990554 0.915365 -71.740270 -69.234841 37.032306 -22.905367 -47.119853 3.936263 0.000000 0.000000 0.000000 -1.611497 -0.210620 12.356241 32.352601 10.968835 2.129408 34.913229 3.452721 -35.037460 -8.615584 56.111001 -11.435762 0.000000 0.000000 0.000000 
-2.352173 80.234970 15.857987 -179.654438 26.970873 -179.638046 -3.379659 3.325300 6.790093 0.595830 16.613868 -24.159306 8.042830 2.279846 34.497831 -1.843293 -9.410614 -12.585313 0.000000 0.000000 0.000000 -0.624127 3.275029 8.739558 -0.385870 11.162477 -28.269917 -2.188204 3.528681 42.682877 5.209366 -0.262289 -8.035004 0.000000 0.000000 0.000000 3.875684 4.412432 -7.127747 3.085799 -0.295285 3.609594 0.928820 -3.517468 14.204645 0.015434 -0.047951 0.023780 0.762052 -2.510551 15.270864 11.839126 -13.045496 -7.466260 0.000000 0.000000 0.000000 2.159688 -1.933247 12.099231 -7.167266 -18.681298 1.313856 -68.990573 -68.131909 35.233217 -22.452883 -47.531409 4.173673 0.000000 0.000000 0.000000 -1.543705 -0.276670 12.094606 32.479862 10.109936 2.296619 35.349210 2.993268 -33.367766 -8.044464 56.402244 -11.121425 0.000000 0.000000 0.000000 
-2.098072 80.248344 15.831383 -179.706389 26.524925 -179.665353 -3.402064 3.317139 6.765640 0.998961 16.391465 -23.870914 7.650424 2.224449 34.232635 -1.827466 -9.447168 -12.720433 0.000000 0.000000 0.000000 -0.576360 3.361777 8.682750 -0.177016 10.745032 -27.811499 -2.328518 3.322833 42.521712 4.940992 -0.060360 -8.341315 0.000000 0.000000 0.000000 3.654720 4.449923 -7.127296 3.361408 -0.311756 3.078668 0.888432 -3.577790 14.072740 -0.031740 -0.024465 0.051075 0.694634 -2.578051 14.956856 10.612572 -12.452420 -6.723590 0.000000 0.000000 0.000000 2.172953 -1.807336 11.884637 -7.337536 -18.507810 1.679644 -65.809119 -66.223083 33.314801 -21.993554 -48.587838 4.992266 0.000000 0.000000 0.000000 -1.596678 -0.293753 11.599766 32.648567 9.241600 2.499882 35.657440 2.465798 -30.897331 -7.711926 57.184038 -11.128160 0.000000 0.000000 0.000000 
-1.882097 80.304810 15.757434 -179.719680 25.683793 -179.662129 -3.390693 3.341121 6.578159 1.441890 15.995753 -23.246040 7.195553 2.119280 33.609660 -1.950967 -9.563873 -12.701866 0.000000 0.000000 0.000000 -0.420736 3.312983 8.579574 -0.018699 10.193111 -27.156699 -2.433915 3.177491 42.317509 4.687246 0.141592 -8.633001 0.000000 0.000000 0.000000 3.499044 4.429377 -7.137207 3.623060 -0.221265 2.416558 0.830943 -3.660781 13.826956 -0.028347 -0.113246 0.063674 0.637207 -2.553038 14.742507 9.531480 -11.851956 -6.044106 0.000000 0.000000 0.000000 2.157349 -1.855289 11.589929 -7.585847 -17.982734 2.103479 -62.944325 -62.857760 31.851467 -21.530875 -50.665438 6.363279 0.000000 0.000000 0.000000 -1.638178 -0.255780 11.450310 32.645029 8.457721 2.761673 35.942904 1.753891 -27.566119 -6.953739 58.489779 -10.714089 0.000000 0.000000 0.000000 
-1.698048 80.391785 15.651947 -179.745116 24.878409 -179.735199 -3.298041 3.293676 6.898001 1.660633 15.784994 -23.035435 6.651323 2.169706 32.887299 -2.095515 -9.587661 -12.470808 0.000000 0.000000 0.000000 -0.163312 3.156376 8.401329 -0.035426 9.921470 -26.370758 -2.507974 3.126738 42.070598 4.485965 0.360817 -8.962542 0.000000 0.000000 0.000000 3.352738 4.502400 -7.119206 3.923858 0.002210 1.670811 0.783795 -3.654322 13.674017 -0.027679 -0.030755 0.071661 0.573637 -2.612840 14.546640 8.537926 -11.204006 -5.420614 0.000000 0.000000 0.000000 2.119876 -1.955181 11.445237 -7.669614 -17.442888 2.543428 -60.298228 -58.350682 30.831826 -21.030378 -53.755692 8.330964 0.000000 0.000000 0.000000 -1.716128 -0.386748 11.261567 32.589735 7.582288 3.025067 36.181616 0.803430 -23.338692 -6.361450 60.069294 -10.487775 0.000000 0.000000 0.000000 
-1.586158 80.480545 15.524405 -179.761782 23.765375 -179.910707 -3.139206 3.052440 6.947948 1.788983 15.669169 -22.519064 6.155185 2.268744 32.300771 -2.336141 -9.670453 -12.189245 0.000000 0.000000 0.000000 0.145575 2.745762 8.159273 -0.187015 9.722299 -25.553068 -2.562012 3.115513 41.788190 4.345151 0.588380 -9.438691 0.000000 0.000000 0.000000 3.277064 4.264867 -7.052027 4.274379 0.220285 0.934003 0.710608 -3.673629 13.616710 -0.034854 -0.078169 0.018587 0.585884 -2.395025 14.539120 7.725244 -10.540390 -4.769120 0.000000 0.000000 0.000000 2.160266 -1.933207 11.383106 -7.631986 -16.651183 2.925316 -57.884241 -52.949897 29.861956 -20.941912 -57.769269 11.175436 0.000000 0.000000 0.000000 -1.724772 -0.304393 11.147374 32.461225 7.042103 3.434855 36.144535 0.068389 -18.961853 -5.601195 61.567585 -10.076154 0.000000 0.000000 0.000000 
-1.574552 80.532928 15.420001 -179.804607 22.539167 179.908344 -2.957906 2.582737 7.022500 1.805267 15.383087 -21.975423 5.685434 2.470041 31.521306 -2.512450 -9.653753 -11.886547 0.000000 0.000000 0.000000 0.445652 1.922223 7.974376 -0.476433 9.579970 -24.746429 -2.601355 3.114123 41.712163 4.287947 0.824027 -10.112446 0.000000 0.000000 0.000000 3.271797 3.755707 -6.964554 4.657378 0.500917 0.217468 0.677701 -3.669412 13.677999 -0.025460 -0.059742 -0.006022 0.494428 -2.604205 14.299672 7.082549 -9.930522 -4.343433 0.000000 0.000000 0.000000 2.159955 -1.904915 11.339842 -7.642122 -15.809450 3.372059 -55.650937 -47.159779 28.841116 -21.371810 -62.724414 14.962069 0.000000 0.000000 0.000000 -1.838675 -0.260942 10.993026 32.258796 6.695717 3.775648 35.542761 0.246709 -14.873521 -4.776109 62.502084 -9.649040 0.000000 0.000000 0.000000 
-1.650233 80.517929 15.361247 -179.830507 21.012433 179.658154 -2.743993 2.242819 7.034338 1.789259 14.766432 -21.562366 5.309549 2.446897 31.105173 -2.611621 -9.618621 -11.842533 0.000000 0.000000 0.000000 0.735229 0.825942 7.846931 -0.824130 9.396441 -24.079706 -2.656850 3.039522 41.597741 4.312320 0.994692 -10.869571 0.000000 0.000000 0.000000 3.384366 3.480942 -6.757620 5.070569 0.511582 -0.467760 0.616014 -3.709103 13.733762 0.007007 -0.102207 -0.070282 0.553234 -2.526448 14.335027 6.708849 -9.033075 -3.865789 0.000000 0.000000 0.000000 2.082578 -1.863532 11.349048 -7.563763 -15.003330 3.759293 -53.752335 -41.305029 27.366171 -23.386711 -68.355727 20.497941 0.000000 0.000000 0.000000 -1.802019 -0.267004 11.031123 32.058879 6.689949 4.132366 34.297658 1.877045 -11.879276 -3.619978 62.765491 -8.852859 0.000000 0.000000 0.000000 
-1.848746 80.437904 15.324051 -179.849836 19.437853 179.685488 -2.502967 1.848403 6.892317 1.590960 14.279816 -21.384643 5.029011 2.488923 30.991567 -2.653007 -9.550630 -11.954738 0.000000 0.000000 0.000000 1.011543 -0.097677 7.642240 -1.278472 9.279334 -23.734141 -2.755377 2.984283 41.580826 4.432540 1.094272 -11.495575 0.000000 0.000000 0.000000 3.573462 3.078231 -6.746356 5.564145 0.899792 -1.164462 0.627989 -3.772037 13.793812 0.016182 -0.238400 -0.039714 0.543340 -2.453589 14.332592 6.402721 -8.192283 -3.472744 0.000000 0.000000 0.000000 2.095480 -1.904092 11.397834 -7.391048 -14.114175 4.091155 -52.271127 -35.735673 25.785622 -28.105931 -74.044886 28.908444 0.000000 0.000000 0.000000 -1.959992 -0.235936 10.875481 31.990424 6.845599 4.512879 32.817649 5.025337 -9.652989 -2.839182 62.197929 -8.479270 0.000000 0.000000 0.000000 
-2.177403 80.312576 15.282943 -179.838908 18.388877 179.580358 -2.200315 1.649847 6.690493 1.285140 13.919799 -21.284102 4.867142 2.568483 31.114585 -2.619690 -9.464054 -12.323125 0.000000 0.000000 0.000000 1.316550 -0.314023 7.584898 -1.780663 9.071111 -23.446597 -2.823476 2.874393 41.689641 4.698710 1.170739 -12.151372 0.000000 0.000000 0.000000 3.839155 2.934946 -6.513090 6.108033 0.961631 -1.821416 0.626661 -3.662035 13.937185 -0.001208 -0.221235 -0.038619 0.648137 -2.283184 14.407618 6.340332 -7.487306 -3.046260 0.000000 0.000000 0.000000 2.036317 -1.790745 11.484319 -7.206146 -13.184251 4.468701 -51.165398 -30.372724 24.260367 -37.703655 -79.058190 42.116965 0.000000 0.000000 0.000000 -1.973914 -0.124947 10.936437 31.912563 7.181617 4.682347 31.147473 9.024790 -8.427600 -1.677175 61.305060 -7.711310 0.000000 0.000000 0.000000 
-2.668750 80.167862 15.190421 -179.810044 17.492482 179.564116 -1.928934 1.454141 6.533763 0.775500 13.733134 -21.121224 4.826950 2.624359 31.506587 -2.551703 -9.348138 -12.760809 0.000000 0.000000 0.000000 1.601694 -0.372973 7.450217 -2.415467 8.874904 -23.233336 -2.775399 2.831353 41.853671 5.125954 1.231201 -12.752166 0.000000 0.000000 0.000000 4.124834 2.685421 -6.237923 6.699333 1.275271 -2.485414 0.652999 -3.635877 14.022936 -0.023181 -0.288427 -0.072870 0.690215 -2.302222 14.357264 6.229229 -7.052068 -2.741697 0.000000 0.000000 0.000000 2.129627 -1.671570 11.498366 -6.910824 -12.203233 4.825848 -50.623258 -25.247345 22.987983 -57.508595 -82.384389 65.384718 0.000000 0.000000 0.000000 -1.994203 0.006176 10.822985 32.013004 7.244171 4.969461 29.760982 12.817326 -7.876141 -1.025260 60.381263 -7.506508 0.000000 0.000000 0.000000 
-3.359408 80.047783 15.051649 -179.745922 16.966878 179.495541 -1.690881 1.097804 6.390365 0.038744 13.667853 -21.021881 4.864425 2.757509 31.762118 -2.466659 -9.195451 -13.284417 0.000000 0.000000 0.000000 1.933893 -0.507035 7.376533 -3.312955 9.022748 -23.035916 -2.585546 2.961673 42.011479 5.693013 1.289311 -13.016444 0.000000 0.000000 0.000000 4.425473 2.313562 -5.830053 7.413585 1.527886 -3.178275 0.693793 -3.494761 14.126860 -0.037687 -0.162466 -0.085922 0.771026 -2.152437 14.391473 6.178614 -6.143288 -2.231499 0.000000 0.000000 0.000000 2.126204 -1.739869 11.665021 -6.499034 -11.384103 5.263886 -50.428045 -20.321061 22.119612 -83.512621 -83.794140 94.606337 0.000000 0.000000 0.000000 -1.942161 -0.071640 10.936319 32.005867 7.020123 4.822542 29.037692 15.159789 -7.953946 -0.415036 60.073945 -7.329327 0.000000 0.000000 0.000000 
-4.196942 79.939346 14.842357 -179.696130 16.546726 179.398361 -1.499238 0.662613 6.297435 -0.862709 13.638558 -20.958342 4.939476 2.934755 31.845033 -2.438445 -9.074022 -13.845530 0.000000 0.000000 0.000000 2.314712 -0.740738 7.325152 -4.443020 9.271787 -23.042535 -2.370994 3.187454 42.347849 6.348259 1.338826 -13.159105 0.000000 0.000000 0.000000 4.790480 2.151825 -5.398079 8.032931 1.537344 -3.847204 0.673283 -3.587079 14.173480 -0.040677 -0.277052 -0.098019 0.736406 -2.114188 14.446501 5.933110 -5.804412 -1.836301 0.000000 0.000000 0.000000 2.172150 -1.635677 11.746023 -6.163712 -10.411490 5.742602 -50.628589 -15.773574 21.496958 -103.263479 -83.861541 117.289183 0.000000 0.000000 0.000000 -2.053195 0.171808 10.855371 31.948333 6.469723 4.989037 29.232506 15.609142 -8.355182 -0.454067 60.154296 -7.828502 0.000000 0.000000 0.000000 
